<svg id="Layer_1" data-name="Layer 1" xmlns="http://www.w3.org/2000/svg" xmlns:xlink="http://www.w3.org/1999/xlink" viewBox="0 0 56.69 56.69"><defs><style>.cls-1{fill:none;}.cls-2{clip-path:url(#clip-path);}.cls-3{fill:#1d1d1b;}</style><clipPath id="clip-path"><rect class="cls-1" x="7.09" y="4.1" width="42.52" height="48.49"/></clipPath></defs><title>return</title><g class="cls-2"><path class="cls-3" d="M10,22.5l3.11,3.27c6.46-5.48,9.73-8.34,16.19-8.34A14.38,14.38,0,0,1,43.88,31.74,15.09,15.09,0,0,1,29,46.87a14.9,14.9,0,0,1-11.45-5.32l-4.49,3.68A21.1,21.1,0,0,0,29,52.59,20.79,20.79,0,0,0,49.61,31.74a20.11,20.11,0,0,0-20.2-20c-7.36,0-12.59,4-19.38,10.79M31.94,25,13.06,22.74,15.35,4.1l-6,4.66L7.09,27.33,26,29.69Z"/></g></svg>